<svg width="1440" height="820" viewBox="0 0 1440 820" fill="none" xmlns="http://www.w3.org/2000/svg">
<mask id="path-1-inside-1" fill="white">
<rect width="1440" height="820" rx="10"/>
</mask>
<rect width="1440" height="820" rx="10" stroke="#FFBB55" stroke-width="120" mask="url(#path-1-inside-1)"/>
<path d="M105.125 357L137.325 229.25H165.5L197.875 357H175.475L168.475 326.025H134.525L127.525 357H105.125ZM138.55 308.175H164.45L156.75 273.875C155.467 268.158 154.358 263.025 153.425 258.475C152.492 253.808 151.85 250.425 151.5 248.325C151.15 250.425 150.508 253.808 149.575 258.475C148.642 263.025 147.533 268.1 146.25 273.7L138.55 308.175ZM217.407 357V260.75H238.757V279.125H239.107C240.157 272.825 242.898 267.925 247.332 264.425C251.765 260.808 257.54 259 264.657 259C274.107 259 281.632 262.15 287.232 268.45C292.948 274.75 295.807 283.208 295.807 293.825V357H273.932V296.1C273.932 290.267 272.357 285.775 269.207 282.625C266.173 279.475 262.032 277.9 256.782 277.9C251.298 277.9 246.982 279.533 243.832 282.8C240.798 286.067 239.282 290.733 239.282 296.8V357H217.407ZM322.163 357V337.05H355.763V280.525H326.538V260.75H376.763V337.05H406.513V357H322.163ZM364.513 244.65C360.08 244.65 356.58 243.542 354.013 241.325C351.447 238.992 350.163 235.9 350.163 232.05C350.163 228.2 351.447 225.167 354.013 222.95C356.58 220.617 360.08 219.45 364.513 219.45C368.947 219.45 372.447 220.617 375.013 222.95C377.58 225.167 378.863 228.2 378.863 232.05C378.863 235.9 377.58 238.992 375.013 241.325C372.447 243.542 368.947 244.65 364.513 244.65ZM422.895 357V260.75H440.745V273.7H441.62C442.203 269.267 443.895 265.708 446.695 263.025C449.495 260.342 453.053 259 457.37 259C461.453 259 464.895 260.342 467.695 263.025C470.495 265.592 472.362 269.15 473.295 273.7H473.995C474.695 269.267 476.503 265.708 479.42 263.025C482.337 260.342 486.012 259 490.445 259C496.278 259 500.945 261.275 504.445 265.825C508.062 270.375 509.87 276.325 509.87 283.675V357H490.62V285.25C490.62 278.483 487.878 275.1 482.395 275.1C476.912 275.1 474.17 278.483 474.17 285.25V357H458.42V285.25C458.42 278.483 455.678 275.1 450.195 275.1C444.828 275.1 442.145 278.483 442.145 285.25V357H422.895ZM560.552 358.75C550.635 358.75 542.818 356.183 537.102 351.05C531.385 345.8 528.527 338.683 528.527 329.7C528.527 320.25 531.677 312.958 537.977 307.825C544.393 302.692 553.318 300.125 564.752 300.125H588.727V291.9C588.727 287.233 587.21 283.617 584.177 281.05C581.143 278.367 577.002 277.025 571.752 277.025C566.968 277.025 563.002 278.075 559.852 280.175C556.702 282.275 554.835 285.133 554.252 288.75H532.902C533.952 279.65 538.035 272.417 545.152 267.05C552.268 261.683 561.368 259 572.452 259C584.118 259 593.393 261.975 600.277 267.925C607.16 273.758 610.602 281.692 610.602 291.725V357H589.427V340.2H589.077C587.91 345.917 584.76 350.467 579.627 353.85C574.61 357.117 568.252 358.75 560.552 358.75ZM567.727 342.3C573.91 342.3 578.927 340.725 582.777 337.575C586.743 334.425 588.727 330.342 588.727 325.325V313.6H565.102C560.668 313.6 557.11 314.883 554.427 317.45C551.743 320.017 550.402 323.4 550.402 327.6C550.402 332.15 551.918 335.767 554.952 338.45C558.102 341.017 562.36 342.3 567.727 342.3ZM636.958 357V337.05H670.558V280.525H641.333V260.75H691.558V337.05H721.308V357H636.958ZM679.308 244.65C674.875 244.65 671.375 243.542 668.808 241.325C666.242 238.992 664.958 235.9 664.958 232.05C664.958 228.2 666.242 225.167 668.808 222.95C671.375 220.617 674.875 219.45 679.308 219.45C683.742 219.45 687.242 220.617 689.808 222.95C692.375 225.167 693.658 228.2 693.658 232.05C693.658 235.9 692.375 238.992 689.808 241.325C687.242 243.542 683.742 244.65 679.308 244.65ZM777.415 358.575C766.448 358.575 757.582 356.067 750.815 351.05C744.165 346.033 740.665 339.267 740.315 330.75H762.19C762.423 333.9 763.882 336.408 766.565 338.275C769.365 340.025 772.982 340.9 777.415 340.9H785.115C790.482 340.9 794.507 339.85 797.19 337.75C799.873 335.65 801.215 332.792 801.215 329.175C801.215 322.758 796.315 318.85 786.515 317.45L774.615 315.7C763.648 314.183 755.598 311.267 750.465 306.95C745.332 302.633 742.765 296.158 742.765 287.525C742.765 278.542 745.798 271.6 751.865 266.7C757.932 261.683 766.857 259.175 778.64 259.175H785.29C795.907 259.175 804.423 261.567 810.84 266.35C817.373 271.133 820.873 277.55 821.34 285.6H799.465C799.115 283.033 797.657 280.933 795.09 279.3C792.64 277.667 789.373 276.85 785.29 276.85H778.64C773.623 276.85 769.948 277.783 767.615 279.65C765.398 281.4 764.29 284.025 764.29 287.525C764.29 290.792 765.282 293.242 767.265 294.875C769.248 296.508 772.457 297.617 776.89 298.2L789.315 299.95C800.748 301.583 809.148 304.675 814.515 309.225C819.998 313.658 822.74 320.25 822.74 329C822.74 338.45 819.532 345.742 813.115 350.875C806.815 356.008 797.482 358.575 785.115 358.575H777.415ZM217.932 588V460.25H297.382V480.55H239.457V514.675H292.832V534.975H239.807V588H217.932ZM350.688 589.75C340.772 589.75 332.955 587.183 327.238 582.05C321.522 576.8 318.663 569.683 318.663 560.7C318.663 551.25 321.813 543.958 328.113 538.825C334.53 533.692 343.455 531.125 354.888 531.125H378.863V522.9C378.863 518.233 377.347 514.617 374.313 512.05C371.28 509.367 367.138 508.025 361.888 508.025C357.105 508.025 353.138 509.075 349.988 511.175C346.838 513.275 344.972 516.133 344.388 519.75H323.038C324.088 510.65 328.172 503.417 335.288 498.05C342.405 492.683 351.505 490 362.588 490C374.255 490 383.53 492.975 390.413 498.925C397.297 504.758 400.738 512.692 400.738 522.725V588H379.563V571.2H379.213C378.047 576.917 374.897 581.467 369.763 584.85C364.747 588.117 358.388 589.75 350.688 589.75ZM357.863 573.3C364.047 573.3 369.063 571.725 372.913 568.575C376.88 565.425 378.863 561.342 378.863 556.325V544.6H355.238C350.805 544.6 347.247 545.883 344.563 548.45C341.88 551.017 340.538 554.4 340.538 558.6C340.538 563.15 342.055 566.767 345.088 569.45C348.238 572.017 352.497 573.3 357.863 573.3ZM427.27 588V491.75H448.62V510.125H448.97C450.02 503.825 452.762 498.925 457.195 495.425C461.628 491.808 467.403 490 474.52 490C483.97 490 491.495 493.15 497.095 499.45C502.812 505.75 505.67 514.208 505.67 524.825V588H483.795V527.1C483.795 521.267 482.22 516.775 479.07 513.625C476.037 510.475 471.895 508.9 466.645 508.9C461.162 508.9 456.845 510.533 453.695 513.8C450.662 517.067 449.145 521.733 449.145 527.8V588H427.27ZM581.727 588C572.51 588 565.277 585.433 560.027 580.3C554.893 575.167 552.327 568.108 552.327 559.125V511.525H526.252V491.75H552.327V464.625H574.377V491.75H611.302V511.525H574.377V559.125C574.377 565.192 577.352 568.225 583.302 568.225H609.552V588H581.727ZM665.483 589.75C655.567 589.75 647.75 587.183 642.033 582.05C636.317 576.8 633.458 569.683 633.458 560.7C633.458 551.25 636.608 543.958 642.908 538.825C649.325 533.692 658.25 531.125 669.683 531.125H693.658V522.9C693.658 518.233 692.142 514.617 689.108 512.05C686.075 509.367 681.933 508.025 676.683 508.025C671.9 508.025 667.933 509.075 664.783 511.175C661.633 513.275 659.767 516.133 659.183 519.75H637.833C638.883 510.65 642.967 503.417 650.083 498.05C657.2 492.683 666.3 490 677.383 490C689.05 490 698.325 492.975 705.208 498.925C712.092 504.758 715.533 512.692 715.533 522.725V588H694.358V571.2H694.008C692.842 576.917 689.692 581.467 684.558 584.85C679.542 588.117 673.183 589.75 665.483 589.75ZM672.658 573.3C678.842 573.3 683.858 571.725 687.708 568.575C691.675 565.425 693.658 561.342 693.658 556.325V544.6H670.033C665.6 544.6 662.042 545.883 659.358 548.45C656.675 551.017 655.333 554.4 655.333 558.6C655.333 563.15 656.85 566.767 659.883 569.45C663.033 572.017 667.292 573.3 672.658 573.3ZM663.733 475.125L682.283 450.625H705.733L685.783 475.125H663.733ZM777.415 589.575C766.448 589.575 757.582 587.067 750.815 582.05C744.165 577.033 740.665 570.267 740.315 561.75H762.19C762.423 564.9 763.882 567.408 766.565 569.275C769.365 571.025 772.982 571.9 777.415 571.9H785.115C790.482 571.9 794.507 570.85 797.19 568.75C799.873 566.65 801.215 563.792 801.215 560.175C801.215 553.758 796.315 549.85 786.515 548.45L774.615 546.7C763.648 545.183 755.598 542.267 750.465 537.95C745.332 533.633 742.765 527.158 742.765 518.525C742.765 509.542 745.798 502.6 751.865 497.7C757.932 492.683 766.857 490.175 778.64 490.175H785.29C795.907 490.175 804.423 492.567 810.84 497.35C817.373 502.133 820.873 508.55 821.34 516.6H799.465C799.115 514.033 797.657 511.933 795.09 510.3C792.64 508.667 789.373 507.85 785.29 507.85H778.64C773.623 507.85 769.948 508.783 767.615 510.65C765.398 512.4 764.29 515.025 764.29 518.525C764.29 521.792 765.282 524.242 767.265 525.875C769.248 527.508 772.457 528.617 776.89 529.2L789.315 530.95C800.748 532.583 809.148 535.675 814.515 540.225C819.998 544.658 822.74 551.25 822.74 560C822.74 569.45 819.532 576.742 813.115 581.875C806.815 587.008 797.482 589.575 785.115 589.575H777.415ZM896.521 588C887.305 588 880.071 585.433 874.821 580.3C869.688 575.167 867.121 568.108 867.121 559.125V511.525H841.046V491.75H867.121V464.625H889.171V491.75H926.096V511.525H889.171V559.125C889.171 565.192 892.146 568.225 898.096 568.225H924.346V588H896.521ZM951.753 588V568.05H985.353V511.525H956.128V491.75H1006.35V568.05H1036.1V588H951.753ZM994.103 475.65C989.67 475.65 986.17 474.542 983.603 472.325C981.036 469.992 979.753 466.9 979.753 463.05C979.753 459.2 981.036 456.167 983.603 453.95C986.17 451.617 989.67 450.45 994.103 450.45C998.536 450.45 1002.04 451.617 1004.6 453.95C1007.17 456.167 1008.45 459.2 1008.45 463.05C1008.45 466.9 1007.17 469.992 1004.6 472.325C1002.04 474.542 998.536 475.65 994.103 475.65ZM1096.41 589.75C1088.24 589.75 1081.07 588.233 1074.88 585.2C1068.82 582.05 1064.09 577.675 1060.71 572.075C1057.33 566.358 1055.63 559.65 1055.63 551.95V527.8C1055.63 520.1 1057.33 513.45 1060.71 507.85C1064.09 502.133 1068.82 497.758 1074.88 494.725C1081.07 491.575 1088.24 490 1096.41 490C1108.54 490 1118.23 493.15 1125.46 499.45C1132.69 505.633 1136.48 514.092 1136.83 524.825H1114.96C1114.61 519.808 1112.8 515.958 1109.53 513.275C1106.27 510.475 1101.89 509.075 1096.41 509.075C1090.58 509.075 1085.97 510.708 1082.58 513.975C1079.2 517.125 1077.51 521.675 1077.51 527.625V551.95C1077.51 557.9 1079.2 562.508 1082.58 565.775C1085.97 569.042 1090.58 570.675 1096.41 570.675C1102.01 570.675 1106.38 569.333 1109.53 566.65C1112.8 563.85 1114.61 559.942 1114.96 554.925H1136.83C1136.48 565.658 1132.69 574.175 1125.46 580.475C1118.23 586.658 1108.54 589.75 1096.41 589.75ZM1200.82 589.575C1188.45 589.575 1178.65 586.192 1171.42 579.425C1164.18 572.542 1160.57 563.325 1160.57 551.775V527.975C1160.57 516.425 1164.18 507.267 1171.42 500.5C1178.65 493.617 1188.45 490.175 1200.82 490.175C1213.18 490.175 1222.98 493.617 1230.22 500.5C1237.45 507.267 1241.07 516.367 1241.07 527.8V551.775C1241.07 563.325 1237.45 572.542 1230.22 579.425C1222.98 586.192 1213.18 589.575 1200.82 589.575ZM1200.82 570.5C1206.65 570.5 1211.14 568.925 1214.29 565.775C1217.56 562.508 1219.19 557.842 1219.19 551.775V527.975C1219.19 521.908 1217.56 517.3 1214.29 514.15C1211.14 510.883 1206.65 509.25 1200.82 509.25C1194.98 509.25 1190.43 510.883 1187.17 514.15C1184.02 517.3 1182.44 521.908 1182.44 527.975V551.775C1182.44 557.842 1184.02 562.508 1187.17 565.775C1190.43 568.925 1194.98 570.5 1200.82 570.5ZM1302.07 589.575C1291.11 589.575 1282.24 587.067 1275.47 582.05C1268.82 577.033 1265.32 570.267 1264.97 561.75H1286.85C1287.08 564.9 1288.54 567.408 1291.22 569.275C1294.02 571.025 1297.64 571.9 1302.07 571.9H1309.77C1315.14 571.9 1319.16 570.85 1321.85 568.75C1324.53 566.65 1325.87 563.792 1325.87 560.175C1325.87 553.758 1320.97 549.85 1311.17 548.45L1299.27 546.7C1288.31 545.183 1280.26 542.267 1275.12 537.95C1269.99 533.633 1267.42 527.158 1267.42 518.525C1267.42 509.542 1270.46 502.6 1276.52 497.7C1282.59 492.683 1291.51 490.175 1303.3 490.175H1309.95C1320.56 490.175 1329.08 492.567 1335.5 497.35C1342.03 502.133 1345.53 508.55 1346 516.6H1324.12C1323.77 514.033 1322.31 511.933 1319.75 510.3C1317.3 508.667 1314.03 507.85 1309.95 507.85H1303.3C1298.28 507.85 1294.61 508.783 1292.27 510.65C1290.06 512.4 1288.95 515.025 1288.95 518.525C1288.95 521.792 1289.94 524.242 1291.92 525.875C1293.91 527.508 1297.11 528.617 1301.55 529.2L1313.97 530.95C1325.41 532.583 1333.81 535.675 1339.17 540.225C1344.66 544.658 1347.4 551.25 1347.4 560C1347.4 569.45 1344.19 576.742 1337.77 581.875C1331.47 587.008 1322.14 589.575 1309.77 589.575H1302.07Z" fill="#FFBB55"/>
</svg>
